<svg width="78" height="14" viewBox="0 0 78 14" fill="none" xmlns="http://www.w3.org/2000/svg">
<path d="M7 10.6761L10.0417 9.86164L11.3125 14L7 10.6761ZM14 5.32704H8.64583L7 0L5.35417 5.32704H0L4.33334 8.62893L2.6875 13.956L7.02083 10.6541L9.6875 8.62893L14 5.32704Z" fill="#F5F7F5"/>
<path d="M23 10.6761L26.0417 9.86164L27.3125 14L23 10.6761ZM30 5.32704H24.6458L23 0L21.3542 5.32704H16L20.3333 8.62893L18.6875 13.956L23.0208 10.6541L25.6875 8.62893L30 5.32704Z" fill="#F5F7F5"/>
<path d="M39 10.6761L42.0417 9.86164L43.3125 14L39 10.6761ZM46 5.32704H40.6458L39 0L37.3542 5.32704H32L36.3333 8.62893L34.6875 13.956L39.0208 10.6541L41.6875 8.62893L46 5.32704Z" fill="#F5F7F5"/>
<path d="M55 10.6761L58.0417 9.86164L59.3125 14L55 10.6761ZM62 5.32704H56.6458L55 0L53.3542 5.32704H48L52.3333 8.62893L50.6875 13.956L55.0208 10.6541L57.6875 8.62893L62 5.32704Z" fill="#F5F7F5"/>
<path d="M71 10.6761L74.0417 9.86164L75.3125 14L71 10.6761ZM78 5.32704H72.6458L71 0L69.3542 5.32704H64L68.3333 8.62893L66.6875 13.956L71.0208 10.6541L73.6875 8.62893L78 5.32704Z" fill="#F5F7F5"/>
</svg>
