<svg width="63" height="63" viewBox="0 0 63 63" fill="none" xmlns="http://www.w3.org/2000/svg">
<path d="M0 0C4.13664 -1.80818e-07 8.23277 0.814771 12.0545 2.39779C15.8763 3.98082 19.3488 6.30109 22.2739 9.22614C25.1989 12.1512 27.5192 15.6237 29.1022 19.4455C30.6852 23.2672 31.5 27.3634 31.5 31.5C31.5 35.6366 30.6852 39.7328 29.1022 43.5545C27.5192 47.3763 25.1989 50.8488 22.2739 53.7739C19.3488 56.6989 15.8763 59.0192 12.0545 60.6022C8.23277 62.1852 4.13664 63 0 63V0Z" fill="white"/>
<path d="M31.5 -1.37691e-06C39.8543 -1.74209e-06 47.8665 3.31874 53.7739 9.22613C59.6813 15.1335 63 23.1457 63 31.5C63 39.8543 59.6813 47.8665 53.7739 53.7739C47.8665 59.6813 39.8543 63 31.5 63L31.5 31.5L31.5 -1.37691e-06Z" fill="#C9F31D"/>
</svg>
