<svg width="1478" height="221" viewBox="0 0 1478 221" fill="none" xmlns="http://www.w3.org/2000/svg">
<path d="M409.064 25.1885C429.089 25.1885 445.72 28.5683 459.497 34.6416L459.589 34.6807C473.749 40.8559 484.518 49.2633 492.576 59.751L492.676 59.8799C494.775 62.5758 496.657 65.4025 498.322 68.3701H489.918C487.248 63.2039 483.954 58.3529 479.992 53.8936C471.49 44.135 460.765 37.1244 448.632 32.501L448.633 32.5C436.409 27.7685 423.054 25.7325 409.064 25.7324C392.701 25.7324 377.163 28.7431 363.267 35.751V35.752C349.424 42.5437 338.308 52.7371 330.64 66.1309H330.639C330.619 66.1648 330.6 66.1994 330.58 66.2334C330.562 66.2651 330.543 66.2964 330.525 66.3281H330.526C322.825 79.6811 319.55 94.7802 319.55 110.594C319.55 126.504 322.862 141.667 330.525 155.143L330.582 155.241L330.639 155.339C338.366 168.644 349.517 178.786 363.267 185.72L363.44 185.807L363.616 185.892C377.426 192.588 392.834 195.456 409.064 195.456C422.848 195.456 435.988 193.569 448.029 189.193L448.03 189.194C448.069 189.18 448.108 189.165 448.147 189.151C448.162 189.146 448.177 189.141 448.191 189.136L448.19 189.135C460.622 184.66 471.597 177.601 480.236 167.581C484.168 163.021 487.433 158.075 490.074 152.818H498.407C496.706 155.906 494.773 158.853 492.61 161.672C484.567 171.971 473.792 180.313 459.589 186.507L459.543 186.527L459.497 186.547C445.72 192.62 429.089 196 409.064 196C387.225 196 369.364 191.969 354.777 184.755C340.015 177.454 329.063 167.608 321.208 155.211C313.729 143.116 309.604 128.538 309.604 110.594C309.604 92.6495 313.729 78.0705 321.208 65.9756C329.063 53.5787 340.015 43.7346 354.777 36.4336C369.364 29.2194 387.225 25.1885 409.064 25.1885ZM728.213 29.7061V126.972C728.213 142.736 724.727 154.838 718.835 164.341C712.714 174.213 704.25 181.865 692.783 187.42C681.162 192.863 666.701 196 648.734 196C631.358 196 617.206 192.754 605.624 187.035C594.486 181.444 586.18 173.692 580.142 163.532C576.029 156.261 573.125 147.624 571.792 137.288H579.89C581.831 150.292 586.191 162.505 594.142 172.773L594.324 173.009L594.512 173.239C608.14 189.999 628.537 195.456 648.734 195.456C668.349 195.456 688.118 190.418 701.919 174.971L702.014 174.864L702.107 174.757C714.485 160.58 719.123 142.542 719.123 123.865V29.7061H728.213ZM1444.76 179.361C1446.86 179.361 1447.9 179.806 1448.6 180.233L1448.91 180.417L1449.21 180.592C1450.37 181.25 1451.08 181.975 1451.71 183.052C1452.2 183.88 1452.59 184.945 1452.59 186.833C1452.59 188.605 1452.24 189.875 1451.63 191.031C1451.02 192.035 1450.32 192.727 1449.21 193.357C1448.42 193.812 1447.15 194.306 1444.76 194.306C1442.83 194.306 1441.43 193.924 1440.18 193.278C1439.15 192.667 1438.48 191.992 1437.89 191.025C1437.28 189.871 1436.93 188.602 1436.93 186.833C1436.93 184.945 1437.33 183.88 1437.81 183.052C1438.44 181.974 1439.16 181.25 1440.31 180.592L1440.44 180.521L1440.56 180.447C1441.78 179.735 1443.01 179.361 1444.76 179.361ZM899.199 28.7646H1003.87C1049.7 28.7646 1086.39 65.4461 1086.39 110.123C1086.39 154.8 1049.7 191.482 1003.87 191.482H899.199C853.365 191.482 816.676 154.8 816.676 110.123C816.676 65.4461 853.366 28.7646 899.199 28.7646ZM211.65 195.247H197.018L121.218 68.4775L129.116 52.6807L211.65 195.247ZM80.335 164.506L59.0693 195.247H44.1543L70.8975 150.671L80.335 164.506ZM1176.93 75.5752V191.482H1169.55V65.1777L1176.93 75.5752ZM1299.67 157.938V162.181L1226.93 59.6406V55.9805L1299.67 157.938ZM1357.05 29.7061V152.269L1349.67 141.93V29.7061H1357.05Z" stroke="url(#paint0_linear_2236_18062)" stroke-width="50"/>
<defs>
<linearGradient id="paint0_linear_2236_18062" x1="711" y1="-7.59457e-06" x2="711" y2="221" gradientUnits="userSpaceOnUse">
<stop stop-color="#303037"/>
<stop offset="1" stop-color="#010103"/>
</linearGradient>
</defs>
</svg>
